<svg width="98" height="32" viewBox="0 0 98 32" fill="none" xmlns="http://www.w3.org/2000/svg">
<path fill-rule="evenodd" clip-rule="evenodd" d="M29.8978 31.3858C33.339 31.5387 36.2341 31.7015 37.7285 31.846C40.6803 32.1315 47.6833 32.0089 53.2911 31.5698C57.6021 31.2335 64.6671 30.3929 71.0809 29.5279C72.8744 29.5879 74.6911 29.6631 76.4813 29.7531C92.4741 30.5578 94.5255 30.4375 95.3348 28.6474C96.1731 26.792 96.1763 26.6341 95.3761 26.5772C95.1566 26.5616 94.9314 26.4493 94.7388 26.2775C95.096 26.0221 95.3027 25.7169 95.4592 25.349C95.4941 25.2669 95.5275 25.1881 95.5595 25.1123C96.7923 25.6178 96.9702 25.3328 96.7712 23.2948C96.7266 22.8382 96.7304 22.3125 96.7742 21.7744C96.8941 21.5918 96.9278 21.267 96.9019 20.7597C97.0218 20.0571 97.2022 19.3952 97.4237 18.9052C98.2498 17.0779 98.2269 16.922 97.0998 16.7065L97.0466 16.6964C97.1476 16.2344 97.2746 15.809 97.422 15.4628C98.2242 13.5776 98.1992 13.4234 97.0699 13.2881C96.4014 13.2081 95.6867 13.2012 95.4816 13.2727C95.3115 13.3321 94.7319 12.4349 94.0981 11.1665C94.5843 11.0048 94.42 10.7543 93.7281 10.1467C93.6533 10.0811 93.5801 10.011 93.5086 9.937C93.1725 9.27004 92.8167 8.72565 92.4411 8.30391C92.0517 7.40569 91.9819 6.589 92.4738 6.54845C93.9105 6.43005 92.1364 4.18842 88.7924 1.89692C85.1539 -0.596378 84.9507 -0.598244 67.2133 1.69355C63.4345 2.18177 59.549 2.74724 56.0214 3.31091C54.04 3.12708 51.6425 2.9715 49.191 2.86737C47.3294 2.65789 45.4415 2.47651 43.6858 2.34468C33.3326 1.56431 7.46173 1.19885 10.9086 1.88162C13.8411 2.46253 12.3147 3.6688 7.67699 4.43537C5.28613 4.83058 3.24064 5.72594 3.1313 6.425C3.02204 7.12409 2.2962 7.65077 1.51833 7.59548C0.465446 7.52062 0.0961533 8.10723 0.0732117 9.89101C0.0644608 10.5713 0.125206 11.11 0.283249 11.5546C0.082428 11.9332 0 12.5181 0 13.3702C0 14.983 0.37986 15.7731 1.51737 16.3472C1.01901 16.3809 0.907181 16.5058 1.12463 16.8284C0.966942 17.1192 0.988617 17.6967 1.11234 18.691C1.15443 19.0292 1.17088 19.4108 1.16454 19.811C0.988831 19.895 0.989937 20.0266 1.14934 20.2423C1.09263 21.2928 0.893051 22.4074 0.598373 23.1699C-0.154564 25.1183 -0.12796 25.2704 0.973526 25.3151C1.57706 25.3394 2.21826 25.298 2.46781 25.222C2.63773 25.665 3.10101 26.2866 3.79885 27.0082C3.96115 27.3119 4.12859 27.6419 4.29504 27.9888C5.23731 29.9521 6.3219 30.9054 7.547 30.8471C7.82075 30.8341 8.17513 30.8252 8.5994 30.8202C11.1264 32.2238 14.1841 32.1026 28.7564 31.4396C29.1359 31.4223 29.5165 31.4044 29.8978 31.3858ZM89.654 23.5036C89.7146 23.4775 89.7746 23.4512 89.834 23.4246C89.9801 23.4972 90.1254 23.5731 90.2693 23.6521C90.063 23.6064 89.8576 23.5568 89.654 23.5036ZM93.4993 26.8135C93.1726 26.9023 92.7909 26.9818 92.3426 27.0537C93.1684 27.1651 93.5235 27.1144 93.4993 26.8135Z" fill="#1DABE3"/>
</svg>
