<svg width="86" height="46" viewBox="0 0 86 46" fill="none" xmlns="http://www.w3.org/2000/svg">
<g clip-path="url(#clip0_3348_3722)">
<path d="M8.07798 15.5522L7.97287 21.7533C7.97287 22.3138 7.79768 22.6291 7.27213 22.6992L7.06191 22.7693C6.57139 22.8744 6.2911 22.6291 6.2911 22.0335L6.32613 20.3519L6.39621 17.2689L5.06481 20.8424C4.92466 21.1927 4.85459 21.438 4.25896 21.5431C3.52318 21.6832 3.45311 21.438 3.348 21.1226L2.19178 18.1798L2.12171 21.1927L2.08667 22.9094C2.08667 23.4699 1.91149 23.7853 1.38594 23.8553L1.17572 23.8904C0.720236 23.9604 0.439941 23.7152 0.439941 23.1546L0.580089 16.9886C0.580089 16.393 0.895421 16.0076 1.42097 15.9025L1.87645 15.8325C2.40201 15.7274 2.61223 15.9025 2.78741 16.323L4.22392 19.6862L5.83562 15.6923C6.04584 15.1318 6.25606 14.9917 6.71154 14.8865L7.23709 14.7814C7.76264 14.6763 8.07798 14.9566 8.07798 15.5522Z" fill="#071D49"/>
<path d="M15.3654 14.0107C15.4004 14.256 15.3304 14.5713 15.0501 15.0618L12.9829 18.4601L12.9479 20.8074C12.9479 21.403 12.7376 21.6833 12.2121 21.7884L11.9668 21.8234C11.4763 21.9285 11.196 21.7183 11.196 21.1227L11.2661 18.7404L8.74344 15.1318C8.67337 15.0618 8.9887 14.4312 9.68944 14.291C10.0748 14.2209 10.3551 14.3961 10.6004 14.8516L12.107 17.1989L14.1742 13.3801C14.1391 13.3451 15.1902 13.24 15.3654 14.0107Z" fill="#071D49"/>
<path d="M28.9952 11.874L28.8201 21.7537C28.785 22.6296 28.5398 23.12 27.7339 23.2602L27.4186 23.3302C26.6478 23.4704 26.1923 23.085 26.2273 22.1741L26.2624 19.5115L26.3675 14.6067L24.2653 20.2823C24.055 20.8778 23.9499 21.2282 22.9689 21.4384C21.8127 21.6486 21.6725 21.2632 21.4974 20.7727L19.6404 16.0431L19.5353 20.8078L19.4652 23.5404C19.4302 24.4163 19.1849 24.9068 18.3791 25.082L18.0637 25.152C17.2929 25.2922 16.8375 24.9068 16.8725 23.9959L17.0827 14.1513C17.0827 13.2053 17.5732 12.5747 18.4491 12.4346L19.1499 12.2944C19.9908 12.1193 20.3411 12.3645 20.5864 13.0652L22.8638 18.4254L25.4215 12.0492C25.7718 11.1733 26.0872 10.9281 26.823 10.788L27.6638 10.6128C28.5398 10.4727 29.0303 10.9281 28.9952 11.874Z" fill="#071D49"/>
<path d="M30.7818 17.3392C30.011 13.4154 32.2183 9.56159 36.1775 8.82587C39.7863 8.12518 42.2038 10.1572 42.7644 13.1C43.5002 17.0239 41.3279 20.8426 37.3687 21.6134C33.7249 22.279 31.3424 20.247 30.7818 17.3392ZM39.9614 13.7657C39.6461 12.0841 38.3497 10.9279 36.4578 11.2783C34.4607 11.6636 33.0242 13.9759 33.5497 16.6035C33.865 18.2851 35.1614 19.4413 37.0534 19.0909C39.0154 18.7055 40.452 16.3933 39.9614 13.7657Z" fill="#071D49"/>
<path d="M55.3778 6.6888L55.1676 16.5685C55.1676 17.5144 54.7822 18.0399 53.9413 18.2151L53.7661 18.2501C53.1355 18.3552 52.7851 18.2151 52.2596 17.6195L47.2143 11.1031L47.0741 18.2501C47.0391 19.126 46.7938 19.6164 45.988 19.7566L45.6726 19.8267C44.9018 19.9668 44.4463 19.5814 44.4814 18.6705L44.6916 8.82589C44.7266 7.84493 45.077 7.28438 45.9179 7.10921L46.2683 7.03914C46.8989 6.93404 47.2493 7.07418 47.7748 7.66976L52.645 13.9409L52.7851 7.07418C52.8201 6.19832 53.0654 5.70784 53.8713 5.53267L54.1866 5.4626C54.8873 5.39253 55.3778 5.81294 55.3778 6.6888Z" fill="#071D49"/>
<path d="M57.3046 15.6578L57.4798 6.47878C57.4798 5.46279 58.0053 4.86721 58.9513 4.69204L65.6084 3.4308C66.3441 3.29067 66.7996 3.50087 66.8697 3.99135C66.9398 4.30666 66.9047 4.97231 66.6595 5.28762C66.4843 5.56789 66.2741 5.673 65.6784 5.7781L60.2477 6.82913L60.1776 9.4567L64.1718 8.68594C64.8375 8.5458 65.258 8.75601 65.3631 9.21146C65.3981 9.4567 65.3981 10.1223 65.1879 10.4377C65.0478 10.6479 64.8376 10.823 64.312 10.9281L60.1776 11.7339L60.1426 14.6067L65.5733 13.5557C66.2741 13.4156 66.7646 13.6258 66.8347 14.1163C66.9047 14.4316 66.8697 15.0622 66.6244 15.4476C66.4843 15.6928 66.239 15.8329 65.6434 15.938L59.0565 17.1642C57.9002 17.4095 57.2696 16.919 57.3046 15.6578Z" fill="#071D49"/>
<path d="M78.0468 2.23951C78.1169 2.65992 77.9768 3.1504 77.5563 3.88612L74.2979 9.2814L74.2278 13.0301C74.2278 13.976 73.8774 14.3964 73.0716 14.5716L72.6862 14.6416C71.9154 14.7818 71.4249 14.4665 71.4599 13.5205L71.53 9.73684L67.5007 4.02626C67.3956 3.88612 67.8861 2.90516 68.9723 2.69495C69.5679 2.58985 70.0234 2.87013 70.4088 3.57081L72.7913 7.31948L76.0848 1.22352C76.1198 1.18848 77.8016 1.01331 78.0468 2.23951Z" fill="#071D49"/>
<path d="M2.15686 44.035L2.40212 32.5087C2.40212 31.2124 3.06782 30.4767 4.22403 30.2665L8.8489 29.3556C12.0022 28.76 13.9292 29.6359 14.3497 31.808C14.7001 33.6648 14.1044 35.2414 11.8621 36.3274C13.7541 36.4676 14.8402 37.4485 15.1205 38.92C15.646 41.6526 14.3497 43.9999 9.44452 44.9459L4.32914 45.9268C2.92767 46.2071 2.12182 45.6115 2.15686 44.035ZM8.91897 42.4584C11.1263 42.038 11.8971 41.0921 11.5467 39.4105C11.3365 38.3945 10.4256 37.8689 8.77882 38.1843L5.73062 38.7798L5.62551 43.089L8.91897 42.4584ZM8.49853 36.1172C10.2854 35.7669 11.1613 34.6808 10.881 33.2444C10.6708 32.2284 9.79489 31.808 8.28831 32.1233L5.83573 32.5788L5.73062 36.6427L8.49853 36.1172Z" fill="#071D49"/>
<path d="M27.033 40.0415L26.1571 37.7993L20.6913 38.8503L19.2198 43.2647C19.1497 43.3347 16.7321 43.8953 16.4168 42.1786C16.3117 41.583 16.4168 41.0925 16.7672 40.1116L21.2519 27.8846C21.5322 27.1489 21.9526 26.6935 23.3191 26.4482C24.8957 26.1329 25.4213 26.5183 25.7016 27.1489L30.7119 39.9014C30.817 40.1817 29.9761 41.1976 28.96 41.4078C28.0841 41.548 27.4184 41.1276 27.033 40.0415ZM25.4563 35.2068L23.4592 29.9166L21.357 35.9775L25.4563 35.2068Z" fill="#071D49"/>
<path d="M31.3776 34.1558C30.4316 29.3211 33.2346 24.3812 38.2098 23.4353C40.6624 22.9799 42.2741 23.4703 43.3252 24.171C44.1311 24.6615 44.5865 25.3972 44.6917 25.9227C45.042 27.7796 42.8347 28.3751 42.7296 28.3051C41.8537 26.8687 40.5923 26.2381 38.8405 26.5884C36.0375 27.1139 34.3908 30.1269 34.9514 33.1048C35.4069 35.4521 37.2288 36.7133 39.4361 36.2578C41.0829 35.9425 42.2391 34.9966 42.7646 33.5952C42.7997 33.4551 44.5865 33.5252 44.8668 34.9265C44.9719 35.4521 44.7968 36.0476 44.3413 36.7133C43.5705 37.8694 41.9588 38.9905 39.8215 39.4109C35.512 40.2518 32.1835 38.2898 31.3776 34.1558Z" fill="#071D49"/>
<path d="M58.7759 21.2279C58.881 21.8235 58.6708 22.4541 58.0401 23.295L53.6956 28.8654L56.919 32.1937C58.0401 33.3498 58.6007 33.6651 59.5117 33.56C59.6168 33.525 59.9672 35.4518 57.7248 35.9073C56.1832 36.1876 55.2722 35.4869 53.9058 33.8052L50.4021 30.0215L50.297 35.592C50.262 36.7131 49.9116 37.3087 48.8605 37.5189L48.37 37.624C47.424 37.7991 46.7583 37.3437 46.7933 36.1876L47.0736 23.6453C47.1086 22.4892 47.494 21.9286 48.5101 21.7184L49.0006 21.6133C49.9817 21.4381 50.6474 21.8936 50.5773 23.0497L50.4722 28.2698L56.4635 19.9667C56.4284 19.8616 58.5306 19.8966 58.7759 21.2279Z" fill="#071D49"/>
<path d="M85.8603 12.0138C85.2296 7.07399 82.6719 2.83485 79.0281 -0.00292969C80.0792 1.67872 80.7799 3.6056 81.0252 5.67262C82.0062 13.4152 76.5054 20.4571 68.7973 21.438L67.7112 21.5782L70.1287 17.6193L64.733 18.285L56.8848 28.3748L66.9754 36.2225L72.3711 35.5569L69.0426 32.3337L70.1287 32.1936C80.0792 30.9674 87.0866 21.8935 85.8603 12.0138Z" fill="#CC9C45"/>
</g>
<defs>
<clipPath id="clip0_3348_3722">
<rect width="85.56" height="46" fill="white" transform="translate(0.439941 -0.00292969)"/>
</clipPath>
</defs>
</svg>
