<svg width="150" height="81" viewBox="0 0 150 81" fill="none" xmlns="http://www.w3.org/2000/svg">
<path d="M13.3906 27.3908L13.2063 38.3101C13.2063 39.2971 12.8992 39.8524 11.9778 39.9757L11.6093 40.0991C10.7493 40.2842 10.2579 39.8524 10.2579 38.8036L10.3193 35.8425L10.4422 30.4137L8.10805 36.7061C7.86235 37.323 7.73949 37.7549 6.69527 37.94C5.40534 38.1867 5.28249 37.7549 5.09822 37.1997L3.07119 32.0176L2.94834 37.323L2.88691 40.3459C2.88691 41.3329 2.57979 41.8882 1.65841 42.0115L1.28986 42.0732C0.491336 42.1966 -6.48499e-05 41.7648 -6.48499e-05 40.7777L0.245635 29.9201C0.245635 28.8714 0.798461 28.1928 1.71984 28.0077L2.51836 27.8844C3.43974 27.6993 3.80829 28.0077 4.11542 28.748L6.63384 34.6703L9.4594 27.6376C9.82795 26.6505 10.1965 26.4038 10.995 26.2187L11.9164 26.0336C12.8378 25.8486 13.3906 26.3421 13.3906 27.3908Z" fill="white"/>
<path d="M26.1669 24.6763C26.2284 25.1081 26.1055 25.6633 25.6141 26.527L21.99 32.511L21.9286 36.6443C21.9286 37.6931 21.5601 38.1866 20.6387 38.3716L20.2087 38.4333C19.3488 38.6184 18.8574 38.2483 18.8574 37.1995L18.9802 33.0045L14.5576 26.6504C14.4348 26.527 14.9876 25.4166 16.2161 25.1698C16.8918 25.0464 17.3832 25.3549 17.8131 26.1569L20.4544 30.2901L24.0785 23.5659C24.0171 23.5042 25.8598 23.3191 26.1669 24.6763Z" fill="white"/>
<path d="M50.0618 20.9133L49.7546 38.3101C49.6932 39.8524 49.2632 40.7161 47.8505 40.9628L47.2976 41.0862C45.9463 41.333 45.1478 40.6544 45.2092 39.0504L45.2706 34.3619L45.4549 25.7252L41.7694 35.7191C41.4008 36.7679 41.2166 37.3848 39.4967 37.7549C37.4696 38.1251 37.2239 37.4465 36.9168 36.5828L33.6613 28.2545L33.477 36.6445L33.3542 41.4564C33.2927 42.9986 32.8628 43.8623 31.45 44.1708L30.8972 44.2941C29.5458 44.5409 28.7473 43.8623 28.8087 42.2584L29.1773 24.9232C29.1773 23.2576 30.0372 22.1472 31.5728 21.9004L32.8013 21.6536C34.2755 21.3452 34.8898 21.777 35.3198 23.0108L39.3124 32.4495L43.7964 21.2218C44.4107 19.6795 44.9635 19.2477 46.2534 19.0009L47.7276 18.6925C49.2632 18.4457 50.1232 19.2477 50.0618 20.9133Z" fill="white"/>
<path d="M53.1941 30.5369C51.8427 23.6276 55.7125 16.8416 62.6535 15.5461C68.9803 14.3123 73.2186 17.8903 74.2014 23.0723C75.4914 29.9817 71.683 36.706 64.742 38.0632C58.3538 39.2353 54.1769 35.6573 53.1941 30.5369ZM69.2874 24.2445C68.7346 21.2833 66.4619 19.2475 63.1449 19.8644C59.6437 20.543 57.1253 24.6146 58.0467 29.2414C58.5995 32.2026 60.8722 34.2384 64.1892 33.6215C67.629 32.9429 70.1474 28.8713 69.2874 24.2445Z" fill="white"/>
<path d="M96.3146 11.783L95.946 29.1798C95.946 30.8454 95.2704 31.7708 93.7962 32.0792L93.489 32.1409C92.3834 32.326 91.7691 32.0792 90.8478 31.0305L82.0025 19.556L81.7569 32.1409C81.6954 33.6832 81.2654 34.5469 79.8527 34.7936L79.2998 34.917C77.9485 35.1638 77.15 34.4852 77.2114 32.8812L77.5799 15.5461C77.6414 13.8188 78.2556 12.8317 79.7298 12.5233L80.3441 12.3999C81.4497 12.2148 82.064 12.4616 82.9854 13.5103L91.5234 24.553L91.7691 12.4616C91.8306 10.9193 92.2605 10.0556 93.6733 9.74718L94.2261 9.6238C95.4546 9.50042 96.3146 10.2407 96.3146 11.783Z" fill="white"/>
<path d="M99.6929 27.5762L100 11.4132C100 9.62415 100.921 8.57541 102.58 8.26695L114.251 6.04609C115.541 5.79932 116.339 6.16947 116.462 7.03314C116.585 7.58835 116.523 8.76048 116.093 9.3157C115.786 9.80922 115.418 9.9943 114.373 10.1794L104.853 12.0301L104.73 16.6569L111.732 15.2997C112.899 15.0529 113.636 15.4231 113.821 16.2251C113.882 16.6569 113.882 17.829 113.514 18.3842C113.268 18.7544 112.899 19.0628 111.978 19.2479L104.73 20.6668L104.668 25.7254L114.189 23.8747C115.418 23.628 116.278 23.9981 116.401 24.8618C116.523 25.417 116.462 26.5274 116.032 27.206C115.786 27.6379 115.356 27.8846 114.312 28.0697L102.764 30.2289C100.737 30.6607 99.6314 29.797 99.6929 27.5762Z" fill="white"/>
<path d="M136.057 3.94835C136.18 4.68864 135.934 5.55231 135.197 6.84782L129.485 16.3482L129.362 22.9491C129.362 24.6148 128.747 25.355 127.335 25.6635L126.659 25.7869C125.308 26.0336 124.448 25.4784 124.509 23.8128L124.632 17.1502L117.568 7.09458C117.384 6.84782 118.244 5.12047 120.148 4.75033C121.192 4.56526 121.991 5.05878 122.666 6.2926L126.843 12.8935L132.617 2.15932C132.679 2.09763 135.627 1.78917 136.057 3.94835Z" fill="white"/>
<path d="M3.0095 77.5452L3.43947 57.2489C3.43947 54.9664 4.60655 53.6709 6.63358 53.3007L14.7417 51.6968C20.2699 50.648 23.6483 52.1903 24.3854 56.0151C24.9997 59.2847 23.9554 62.0608 20.0242 63.9732C23.3412 64.22 25.2454 65.9473 25.7368 68.5383C26.6581 73.3502 24.3854 77.4835 15.7859 79.1491L6.81785 80.8765C4.36085 81.37 2.94807 80.3213 3.0095 77.5452ZM14.8645 74.7691C18.7343 74.0288 20.0857 72.3632 19.4714 69.402C19.1029 67.613 17.5058 66.6876 14.6188 67.2428L9.27485 68.2916L9.09058 75.8795L14.8645 74.7691ZM14.1274 63.6031C17.2601 62.9862 18.7957 61.0737 18.3043 58.5444C17.9358 56.7554 16.4002 56.0151 13.7589 56.5703L9.45913 57.3723L9.27485 64.5284L14.1274 63.6031Z" fill="white"/>
<path d="M46.6215 70.5127L45.0858 66.5645L35.5035 68.4152L32.9237 76.1882C32.8008 76.3116 28.5625 77.2987 28.0097 74.2758C27.8254 73.2271 28.0097 72.3634 28.6239 70.6361L36.4863 49.106C36.9777 47.8105 37.7148 47.0085 40.1104 46.5766C42.8745 46.0214 43.7959 46.7 44.2873 47.8105L53.0711 70.2659C53.2554 70.7594 51.7812 72.5485 49.9998 72.9186C48.4642 73.1654 47.2971 72.4251 46.6215 70.5127ZM43.8573 61.9993L40.3561 52.684L36.6706 63.3565L43.8573 61.9993Z" fill="white"/>
<path d="M54.2384 60.1487C52.5799 51.6353 57.4939 42.9369 66.2163 41.2713C70.516 40.4693 73.3416 41.333 75.1843 42.5668C76.5971 43.4305 77.3956 44.726 77.5799 45.6513C78.1942 48.9209 74.3244 49.9697 74.1401 49.8463C72.6045 47.317 70.3932 46.2065 67.3219 46.8234C62.4079 47.7488 59.5209 53.0542 60.5037 58.2979C61.3023 62.4312 64.4964 64.6521 68.3661 63.8501C71.2531 63.2949 73.2802 61.6292 74.2015 59.1616C74.263 58.9148 77.3956 59.0382 77.887 61.5058C78.0713 62.4312 77.7642 63.48 76.9657 64.6521C75.6143 66.6879 72.7888 68.662 69.0418 69.4023C61.4865 70.8828 55.6512 67.4282 54.2384 60.1487Z" fill="white"/>
<path d="M102.272 37.3847C102.456 38.4334 102.088 39.5438 100.982 41.0244L93.3653 50.8332L99.0164 56.6939C100.982 58.7297 101.965 59.2849 103.562 59.0998C103.746 59.0381 104.36 62.4311 100.429 63.2331C97.7265 63.7266 96.1294 62.4928 93.7338 59.5316L87.5913 52.869L87.4071 62.6779C87.3456 64.652 86.7314 65.7007 84.8886 66.0709L84.0287 66.2559C82.3702 66.5644 81.2031 65.7624 81.2646 63.7266L81.756 41.6413C81.8174 39.6055 82.493 38.6185 84.2744 38.2483L85.1343 38.0633C86.8542 37.7548 88.0213 38.5568 87.8985 40.5926L87.7142 49.7845L98.2178 35.1638C98.1564 34.9787 101.842 35.0404 102.272 37.3847Z" fill="white"/>
<path d="M149.755 21.1599C148.649 12.4615 144.165 4.99695 137.777 0C139.619 2.96116 140.848 6.35415 141.278 9.99391C142.998 23.6276 133.354 36.0274 119.841 37.7548L117.936 38.0015L122.175 31.0305L112.715 32.2026L98.9561 49.9695L116.646 63.7883L126.106 62.6161L120.271 56.9406L122.175 56.6938C139.619 54.5347 151.904 38.5567 149.755 21.1599Z" fill="#CC9C45"/>
</svg>
