<svg width="130" height="40" viewBox="0 0 130 40" fill="none" xmlns="http://www.w3.org/2000/svg">
<path d="M21.1489 4.32755C23.8969 4.32755 26.5057 4.7584 28.9778 5.61814C31.0295 6.33167 33.3135 9.47479 31.4794 12.1534C31.7923 11.9637 32.0885 11.7459 32.366 11.5031L32.4611 11.4199L32.5504 11.3305C33.507 10.3739 34.3198 8.9932 34.3198 7.24897C34.3198 6.16334 34.073 4.93658 33.3135 3.81972C32.5428 2.68626 31.4675 1.99468 30.3899 1.61434L30.3827 1.6118L30.3736 1.60864C27.4319 0.585429 24.3495 0.0820312 21.1489 0.0820312C16.9787 0.0820312 13.1768 0.921895 9.90947 2.79153C6.7135 4.56577 4.2228 7.08859 2.50877 10.3042C0.804508 13.4464 0 16.9569 0 20.7374C0 24.1572 0.812109 27.3744 2.45512 30.3181L2.46443 30.3348L2.47392 30.3514C4.17212 33.3233 6.65491 35.658 9.77134 37.382L9.79866 37.3971L9.82617 37.4118C13.0832 39.1442 16.8847 39.9124 21.0666 39.9124C23.1414 39.9124 25.0916 39.7305 26.8912 39.332C28.5827 38.969 30.1565 38.5034 31.5932 37.9189C32.7318 37.4556 33.1256 36.1744 32.7605 35.2043C32.5712 34.7012 32.1772 34.2708 31.5844 34.0668C30.9994 33.8656 30.2709 33.9009 29.4232 34.217C28.4456 34.5815 27.5074 34.8581 25.9893 35.1834L25.9876 35.1838L25.9859 35.1841C24.5439 35.5046 22.9052 35.6669 21.0666 35.6669C17.3935 35.6669 14.3188 34.9919 11.8231 33.6652C9.31249 32.2757 7.43114 30.4686 6.16117 28.247C4.88481 25.9594 4.24552 23.459 4.24552 20.7374C4.24552 17.5679 4.91646 14.7649 6.24698 12.3167L6.24795 12.315L6.2489 12.3132C7.57832 9.81387 9.48947 7.87567 11.9909 6.49189L11.9941 6.49013L11.9973 6.48832C14.4916 5.05538 17.5355 4.32755 21.1489 4.32755Z" fill="url(#paint0_linear_3459_10425)"/>
<path d="M21.1514 11.7811C22.602 11.7811 24.1471 12.0152 25.7998 12.5202L25.9309 12.5577C26.3638 12.6731 26.7506 12.7707 27.0721 12.8421L27.0997 12.8483C27.2996 12.8929 27.8456 13.0148 28.3891 13.0148C29.5262 13.0148 30.5741 12.7011 31.482 12.1505C33.316 9.47188 31.032 6.32875 28.9803 5.61523C29.2195 5.69974 29.4105 5.80745 29.5615 5.93487C29.6586 6.01677 29.7392 6.10683 29.8053 6.2041C29.9758 6.45488 30.0769 6.79228 30.0769 7.24606C30.0769 7.58783 29.9307 7.94176 29.5615 8.31486C29.2026 8.62496 28.7892 8.7669 28.3618 8.7669C28.3413 8.76462 28.3138 8.76079 28.2782 8.75486C28.2068 8.74296 28.1125 8.72423 27.9934 8.69777C27.7571 8.64525 27.4376 8.56551 27.0326 8.45759C25.0232 7.84437 23.0623 7.53558 21.1514 7.53558C16.8933 7.53558 13.5033 8.77131 11.0416 11.2902C8.64546 13.7434 7.45898 16.9051 7.45898 20.7345C8.29323 11.8405 16.8011 11.7811 21.1514 11.7811Z" fill="url(#paint1_linear_3459_10425)"/>
<path d="M11.7045 20.7425C11.7045 17.864 12.5609 15.8187 14.0788 14.2647C15.1915 13.1264 16.7016 12.3027 18.8225 11.9622C19.5285 11.8488 20.3022 11.7891 21.1514 11.7891C16.8011 11.7891 8.29323 11.8485 7.45898 20.7425C7.45898 24.0987 8.65961 26.9065 11.0574 29.1329C11.5734 29.6121 12.1341 30.0396 12.7389 30.4153L12.749 30.4216L12.7595 30.4274C14.3588 31.3072 15.7753 31.0584 16.3648 30.0403C16.9409 29.0456 16.4883 27.6976 15.1266 26.8971C14.6816 26.6354 14.2906 26.3416 13.9462 26.0219C12.4419 24.6249 11.7045 22.9573 11.7045 20.7425Z" fill="url(#paint2_linear_3459_10425)"/>
<path d="M110.725 4.61114L110.712 4.60431C109.968 4.2096 108.953 3.97426 107.601 3.97426C106.622 3.97426 105.732 4.20804 104.912 4.67364C104.112 5.1387 103.458 5.78805 102.946 6.64658L102.94 6.65546C102.46 7.44668 102.197 8.40851 102.197 9.58621C102.197 10.6511 102.423 11.5796 102.855 12.397C103.277 13.1774 103.884 13.8062 104.703 14.2904C105.515 14.7402 106.525 14.9907 107.779 14.9907C108.413 14.9907 108.985 14.929 109.5 14.8128L109.508 14.811C110.042 14.6941 110.495 14.5333 110.876 14.3379C111.157 14.1792 111.466 14.1015 111.781 14.1015C112.279 14.1015 112.776 14.2715 113.166 14.6619C113.557 15.0524 113.727 15.5496 113.727 16.0476C113.727 16.3827 113.652 16.7529 113.435 17.0947C113.227 17.4211 112.939 17.6427 112.636 17.7829C111.949 18.1446 111.198 18.4098 110.391 18.5856C109.562 18.7859 108.69 18.8829 107.779 18.8829C105.875 18.8829 104.168 18.4925 102.706 17.6571L102.699 17.653C101.283 16.8313 100.184 15.7 99.4241 14.2723C98.6706 12.8565 98.3047 11.2857 98.3047 9.58621C98.3047 7.73874 98.7247 6.06489 99.6042 4.60677C100.459 3.19027 101.596 2.07226 103.008 1.27509C104.418 0.478782 105.957 0.0820312 107.601 0.0820312C109.514 0.0820312 111.193 0.420787 112.57 1.18044L112.595 1.19426L112.62 1.20926C113.194 1.56289 113.578 2.1491 113.578 2.88769C113.578 3.40875 113.367 3.84934 113.073 4.18515C112.697 4.61497 112.183 4.83381 111.632 4.83381C111.306 4.83381 111.004 4.75062 110.738 4.61766L110.725 4.61114Z" fill="black"/>
<path fill-rule="evenodd" clip-rule="evenodd" d="M116.695 17.9971L116.748 18.0576L116.808 18.1105C117.171 18.4279 117.627 18.6161 118.135 18.6161C118.634 18.6161 119.131 18.4461 119.521 18.0557L119.549 18.0273L119.576 17.9971C119.893 17.6344 120.082 17.1789 120.082 16.67V13.3996H122.374C123.821 13.3996 125.122 13.1266 126.205 12.4984C127.252 11.9025 128.067 11.0902 128.598 10.0571C129.127 9.06884 129.388 7.99632 129.388 6.85938C129.388 5.63377 129.092 4.50216 128.47 3.50322C127.876 2.51771 127.04 1.75048 125.994 1.20218C124.921 0.619117 123.702 0.348786 122.374 0.348786H118.135C117.627 0.348786 117.171 0.537069 116.808 0.854442L116.778 0.880864L116.75 0.909236C116.359 1.29967 116.189 1.79685 116.189 2.2949V16.67C116.189 17.1789 116.378 17.6344 116.695 17.9971ZM122.374 9.50738H120.082V4.24102H122.374C123.399 4.24102 124.138 4.52283 124.691 5.00849L124.697 5.01403L124.704 5.01949C125.223 5.46309 125.496 6.03559 125.496 6.85938C125.496 7.63493 125.242 8.2447 124.723 8.76369C124.289 9.19763 123.574 9.50738 122.374 9.50738Z" fill="black"/>
<path fill-rule="evenodd" clip-rule="evenodd" d="M84.5084 17.9971L84.5613 18.0576L84.6218 18.1105C84.9845 18.4279 85.44 18.6161 85.9489 18.6161C86.4469 18.6161 86.9441 18.4461 87.3345 18.0557L87.3629 18.0273L87.3893 17.9971C87.7067 17.6344 87.895 17.1789 87.895 16.67V13.3996H90.1873C91.6345 13.3996 92.9352 13.1266 94.0184 12.4984C95.0652 11.9025 95.88 11.0902 96.4118 10.0571C96.94 9.06884 97.2018 7.99632 97.2018 6.85938C97.2018 5.63377 96.9052 4.50216 96.2835 3.50322C95.6898 2.51767 94.853 1.75043 93.8078 1.20213C92.7347 0.619099 91.5151 0.348786 90.1873 0.348786H85.9489C85.44 0.348786 84.9845 0.537069 84.6218 0.854442L84.5916 0.880864L84.5632 0.909236C84.1728 1.29967 84.0028 1.79685 84.0028 2.2949V16.67C84.0028 17.1789 84.191 17.6344 84.5084 17.9971ZM92.5362 8.76369C92.1023 9.19763 91.3877 9.50738 90.1873 9.50738H87.895V4.24102H90.1873C91.2128 4.24102 91.9512 4.52283 92.5043 5.00849L92.5106 5.01403L92.517 5.01949C93.0367 5.46309 93.3095 6.03559 93.3095 6.85938C93.3095 7.63493 93.0552 8.2447 92.5362 8.76369Z" fill="black"/>
<path fill-rule="evenodd" clip-rule="evenodd" d="M69.9937 17.9385L69.9881 17.932C69.6149 17.4999 69.1524 16.9685 68.6001 16.3373L68.587 16.3223L68.5744 16.3069C68.0442 15.6589 67.4742 14.9709 66.8642 14.2429L66.858 14.2355L66.8519 14.228C66.2658 13.5051 65.68 12.8022 65.0946 12.1192L65.0827 12.1053L65.0711 12.0909C64.8182 11.777 64.5771 11.4787 64.3477 11.1961C64.1068 11.4193 63.8756 11.6328 63.6541 11.8365L63.6443 11.8455L63.6343 11.8543C63.3373 12.1157 63.0787 12.3462 62.8578 12.5463V16.67C62.8578 17.1789 62.6695 17.6344 62.3521 17.9971L62.3257 18.0273L62.2973 18.0557C61.9069 18.4461 61.4097 18.6161 60.9116 18.6161C60.4027 18.6161 59.9473 18.4279 59.5846 18.1105L59.5241 18.0576L59.4712 17.9971C59.1538 17.6344 58.9655 17.1789 58.9655 16.67V2.2949C58.9655 1.79685 59.1355 1.29967 59.526 0.909236L59.5544 0.880864L59.5845 0.854442C59.9473 0.537069 60.4027 0.348786 60.9116 0.348786C61.4097 0.348786 61.9069 0.518803 62.2973 0.909239C62.6877 1.29967 62.8578 1.79685 62.8578 2.2949V7.27848C63.5767 6.61616 64.3227 5.92672 65.0958 5.21015C65.9023 4.44304 66.6892 3.69548 67.4565 2.96746C68.2184 2.22501 68.8896 1.55368 69.471 0.952959L69.4778 0.945861L69.4848 0.938877C69.8366 0.58715 70.3103 0.348786 70.8705 0.348786C71.411 0.348786 71.8809 0.572219 72.2273 0.938097C72.5932 1.28448 72.8166 1.75435 72.8166 2.2949C72.8166 2.81405 72.59 3.23685 72.3553 3.53865L72.3185 3.58595L72.2772 3.62936C71.4913 4.4556 70.5594 5.38725 69.4835 6.42332C68.7205 7.15753 67.9673 7.87147 67.2246 8.56449C67.4819 8.87633 67.7533 9.20934 68.0385 9.56338C68.6285 10.2714 69.2284 10.9892 69.8381 11.7169C70.4506 12.448 71.0244 13.1405 71.5593 13.7942C72.0978 14.4288 72.5503 14.9583 72.9173 15.3835C73.273 15.7615 73.4094 16.2299 73.4094 16.67C73.4094 17.1911 73.1976 17.6317 72.9037 17.9675C72.5277 18.3973 72.0143 18.6161 71.4633 18.6161C70.8668 18.6161 70.3619 18.3527 69.9994 17.9449L69.9937 17.9385Z" fill="black"/>
<path fill-rule="evenodd" clip-rule="evenodd" d="M48.0715 14.9907C46.8524 14.9907 45.9478 14.6347 45.2548 13.9873C44.6274 13.384 44.2379 12.4719 44.2379 11.0682V2.2949C44.2379 1.79685 44.0679 1.29967 43.6775 0.909239C43.2871 0.518803 42.7899 0.348786 42.2918 0.348786C41.7829 0.348786 41.3274 0.537069 40.9647 0.854442L40.9345 0.880864L40.9062 0.909236C40.5157 1.29967 40.3457 1.79685 40.3457 2.2949V11.0682C40.3457 13.4178 41.0229 15.4005 42.5284 16.8321L42.5355 16.8388C44.0159 18.2236 45.896 18.8829 48.0715 18.8829C50.4041 18.8829 52.3793 18.2457 53.8142 16.8108C55.2691 15.3559 55.9159 13.3508 55.9159 10.9793V2.2949C55.9159 1.79685 55.7459 1.29967 55.3554 0.909241C54.965 0.518803 54.4678 0.348786 53.9698 0.348786C53.4609 0.348786 53.0054 0.53707 52.6427 0.854441L52.6125 0.880864L52.5841 0.909236C52.1937 1.29967 52.0236 1.79685 52.0236 2.2949V10.9793C52.0236 12.4412 51.633 13.3901 51.0132 14.0099C50.4128 14.6103 49.4932 14.9907 48.0715 14.9907ZM42.8253 1.76139L42.8221 1.75817L42.8253 1.76139Z" fill="black"/>
<path d="M126.654 26.2337C126.196 26.0429 125.69 25.8903 125.137 25.7759C124.603 25.6614 123.897 25.6042 123.019 25.6042C122.046 25.6042 121.274 25.8522 120.701 26.3482C120.129 26.8251 119.843 27.3688 119.843 27.9793C119.843 28.5898 120.11 29.1431 120.644 29.6391C121.178 30.1351 122.218 30.5643 123.763 30.9268C125.137 31.2321 126.196 31.6232 126.94 32.1001C127.703 32.577 128.237 33.1207 128.542 33.7312C128.848 34.3226 129 34.9808 129 35.7058C129 36.4116 128.819 37.0889 128.456 37.7375C128.113 38.3671 127.541 38.8917 126.739 39.3114C125.957 39.7121 124.908 39.9124 123.592 39.9124C121.722 39.9124 119.995 39.4736 118.412 38.596C118.164 38.4434 118.04 38.2335 118.04 37.9665C118.04 37.7948 118.107 37.6326 118.24 37.48C118.374 37.3274 118.546 37.251 118.755 37.251C118.87 37.251 118.984 37.2797 119.099 37.3369C120.453 38.1 121.951 38.4816 123.592 38.4816C124.889 38.4816 125.871 38.2145 126.539 37.6803C127.226 37.127 127.569 36.4689 127.569 35.7058C127.569 34.9045 127.245 34.2368 126.596 33.7026C125.967 33.1684 124.927 32.7201 123.477 32.3576C122.123 32.0142 121.073 31.6232 120.329 31.1844C119.604 30.7456 119.099 30.2496 118.813 29.6963C118.546 29.1431 118.412 28.5326 118.412 27.8649C118.412 27.2544 118.584 26.6725 118.927 26.1193C119.29 25.5469 119.814 25.0795 120.501 24.7171C121.188 24.3546 122.027 24.1733 123.019 24.1733C124.069 24.1733 124.908 24.2592 125.538 24.4309C126.186 24.5835 126.863 24.8029 127.569 25.0891C127.875 25.2035 128.027 25.4229 128.027 25.7472C128.027 25.938 127.951 26.1097 127.798 26.2623C127.665 26.3959 127.503 26.4627 127.312 26.4627C127.274 26.4627 127.216 26.4531 127.14 26.434C127.064 26.3959 126.902 26.3291 126.654 26.2337Z" fill="black"/>
<path d="M113.023 39.7123C112.851 39.7123 112.699 39.655 112.565 39.5406C112.432 39.4261 112.346 39.2735 112.308 39.0827C112.174 37.9953 112.003 36.7648 111.793 35.3912C111.583 34.0176 111.354 32.5963 111.106 31.1273C110.858 29.6584 110.6 28.2371 110.333 26.8635C109.704 28.1417 109.055 29.4771 108.387 30.8698C107.739 32.2434 107.119 33.5979 106.527 34.9333C105.936 36.2688 105.402 37.5183 104.925 38.6821C104.791 39.0064 104.581 39.1686 104.295 39.1686C103.952 39.1686 103.723 39.035 103.608 38.7679C103.055 37.5851 102.445 36.3069 101.777 34.9333C101.109 33.5407 100.441 32.148 99.7738 30.7553C99.1251 29.3627 98.5147 28.0749 97.9423 26.8921C97.7897 27.9032 97.6275 28.9716 97.4558 30.0971C97.3032 31.2227 97.1506 32.3388 96.998 33.4453C96.8644 34.5518 96.7309 35.5915 96.5974 36.5645C96.4829 37.5374 96.3875 38.3768 96.3112 39.0827C96.2921 39.2544 96.2063 39.407 96.0536 39.5406C95.9201 39.655 95.7579 39.7123 95.5672 39.7123C95.3764 39.7123 95.2142 39.6455 95.0807 39.512C94.9471 39.3593 94.8804 39.1781 94.8804 38.9682C94.8804 38.9301 94.909 38.6535 94.9662 38.1384C95.0425 37.5088 95.1475 36.6503 95.281 35.5629C95.4145 34.4755 95.5672 33.2927 95.7389 32.0145C95.9106 30.7172 96.0918 29.4294 96.2826 28.1512C96.4734 26.873 96.6546 25.7188 96.8263 24.6886C96.8644 24.5169 96.9503 24.3739 97.0838 24.2594C97.2365 24.1449 97.3986 24.0877 97.5703 24.0877C97.7992 24.0877 97.9709 24.164 98.0854 24.3166C98.2762 24.5074 98.4288 24.7363 98.5433 25.0034C99.0774 26.0718 99.6593 27.2737 100.289 28.6091C100.938 29.9255 101.605 31.28 102.292 32.6726C102.979 34.0653 103.627 35.4007 104.238 36.6789C104.791 35.4198 105.383 34.0844 106.012 32.6726C106.661 31.2418 107.319 29.8205 107.987 28.4088C108.673 26.978 109.341 25.6521 109.99 24.4311C110.142 24.1831 110.362 24.0591 110.648 24.0591C110.82 24.0591 110.982 24.1163 111.135 24.2308C111.287 24.3262 111.373 24.4597 111.392 24.6314C111.621 25.757 111.84 26.9589 112.05 28.2371C112.279 29.4962 112.489 30.7076 112.68 31.8714C112.871 33.0351 113.023 34.0558 113.138 34.9333C113.271 35.7918 113.367 36.3832 113.424 36.7075C113.576 37.6423 113.662 38.2433 113.681 38.5104C113.72 38.7775 113.739 38.9396 113.739 38.9969C113.739 39.1876 113.672 39.3593 113.538 39.512C113.405 39.6455 113.233 39.7123 113.023 39.7123Z" fill="black"/>
<path d="M89.6476 38.9396C89.6476 39.1304 89.5808 39.3021 89.4473 39.4547C89.3138 39.5882 89.1421 39.655 88.9322 39.655C88.7414 39.655 88.5697 39.5882 88.4171 39.4547C88.2836 39.3021 88.2168 39.1304 88.2168 38.9396V25.0606C88.2168 24.8508 88.2836 24.6791 88.4171 24.5455C88.5697 24.412 88.7414 24.3452 88.9322 24.3452C89.1421 24.3452 89.3138 24.412 89.4473 24.5455C89.5808 24.6791 89.6476 24.8508 89.6476 25.0606V38.9396Z" fill="black"/>
<path d="M83.1212 39.6552C82.7968 39.6552 82.5775 39.5026 82.463 39.1974C82.2722 38.6823 82.0433 38.1099 81.7762 37.4804C81.5091 36.8508 81.2229 36.1926 80.9177 35.5058H72.8479C72.5808 36.1926 72.3232 36.8508 72.0752 37.4804C71.8463 38.0909 71.6364 38.6537 71.4457 39.1687C71.3884 39.3214 71.293 39.4454 71.1595 39.5408C71.026 39.6171 70.8829 39.6552 70.7303 39.6552C70.5586 39.6552 70.3964 39.5885 70.2438 39.4549C70.1102 39.3023 70.0435 39.1211 70.0435 38.9112C70.0435 38.854 70.053 38.7777 70.0721 38.6823C70.1102 38.5678 70.1961 38.3484 70.3296 38.0241C70.6539 37.1656 71.0355 36.1831 71.4743 35.0766C71.9321 33.9701 72.4186 32.8159 72.9337 31.614C73.4488 30.4121 73.9734 29.2007 74.5076 27.9797C75.0418 26.7588 75.5569 25.6046 76.0529 24.5171C76.1865 24.231 76.4154 24.0879 76.7397 24.0879H76.8542C77.1976 24.0879 77.4265 24.2214 77.541 24.4885C78.0561 25.595 78.5998 26.7874 79.1721 28.0656C79.7635 29.3438 80.3358 30.6124 80.8891 31.8716C81.4423 33.1116 81.9479 34.2753 82.4058 35.3628C82.8636 36.4311 83.2356 37.3182 83.5218 38.0241C83.6744 38.3675 83.7603 38.5964 83.7793 38.7109C83.8175 38.8254 83.8366 38.9017 83.8366 38.9398C83.8366 39.1306 83.7603 39.3023 83.6076 39.4549C83.4741 39.5885 83.3119 39.6552 83.1212 39.6552ZM80.3168 34.075C79.7635 32.7968 79.1816 31.49 78.5712 30.1546C77.9607 28.8191 77.3693 27.5505 76.7969 26.3486C76.2628 27.5696 75.7 28.8478 75.1086 30.1832C74.5362 31.4995 73.983 32.7968 73.4488 34.075H80.3168Z" fill="black"/>
<path d="M58.3282 39.655C58.1374 39.655 57.9657 39.5882 57.8131 39.4547C57.6796 39.3021 57.6128 39.1304 57.6128 38.9396V25.0606C57.6128 24.8508 57.6796 24.6791 57.8131 24.5455C57.9657 24.412 58.1374 24.3452 58.3282 24.3452C58.5381 24.3452 58.7098 24.412 58.8433 24.5455C58.9768 24.6791 59.0436 24.8508 59.0436 25.0606V38.2242H66.0833C66.2931 38.2242 66.4648 38.291 66.5984 38.4245C66.7319 38.558 66.7987 38.7297 66.7987 38.9396C66.7987 39.1304 66.7319 39.3021 66.5984 39.4547C66.4648 39.5882 66.2931 39.655 66.0833 39.655H58.3282Z" fill="black"/>
<path d="M51.7064 26.2627C50.7716 25.7667 49.5888 25.5187 48.158 25.5187C47.0133 25.5187 45.9545 25.7953 44.9816 26.3486C44.0277 26.9018 43.255 27.6745 42.6636 28.6665C42.0722 29.6395 41.7765 30.7841 41.7765 32.1005C41.7765 33.3024 42.0341 34.3898 42.5492 35.3628C43.0643 36.3166 43.8083 37.0798 44.7812 37.6521C45.7733 38.2053 46.9561 38.482 48.3297 38.482C49.0165 38.482 49.6556 38.4152 50.247 38.2816C50.8575 38.1481 51.4012 37.9573 51.8781 37.7093C51.9735 37.6521 52.0784 37.6235 52.1929 37.6235C52.4028 37.6235 52.5745 37.6902 52.708 37.8238C52.8415 37.9573 52.9083 38.129 52.9083 38.3389C52.9083 38.6441 52.7748 38.854 52.5077 38.9684C51.9354 39.2737 51.2963 39.5026 50.5904 39.6552C49.8845 39.8269 49.1309 39.9128 48.3297 39.9128C46.6509 39.9128 45.2105 39.5694 44.0086 38.8826C42.8258 38.1958 41.9196 37.261 41.29 36.0782C40.6605 34.8954 40.3457 33.5695 40.3457 32.1005C40.3457 30.498 40.7082 29.0958 41.4331 27.8939C42.1581 26.692 43.112 25.7572 44.2948 25.0895C45.4776 24.4217 46.7653 24.0879 48.158 24.0879C49.875 24.0879 51.2867 24.3931 52.3932 25.0036C52.6412 25.1562 52.7652 25.3661 52.7652 25.6332C52.7652 25.8049 52.6985 25.967 52.5649 26.1197C52.4314 26.2723 52.2597 26.3486 52.0498 26.3486C51.9354 26.3486 51.8209 26.32 51.7064 26.2627Z" fill="black"/>
<defs>
<linearGradient id="paint0_linear_3459_10425" x1="29.6487" y1="-7.1132" x2="43.8043" y2="32.6183" gradientUnits="userSpaceOnUse">
<stop offset="0.35866" stop-color="#00B1FF"/>
<stop offset="0.661458" stop-color="#0FB900"/>
<stop offset="1" stop-color="#FAFF00"/>
</linearGradient>
<linearGradient id="paint1_linear_3459_10425" x1="36.6485" y1="7.69068" x2="11.2466" y2="1.77836" gradientUnits="userSpaceOnUse">
<stop stop-color="#001D8C"/>
<stop offset="0.442967" stop-color="#00B1FF"/>
<stop offset="0.828961" stop-color="#0FB900"/>
<stop offset="1" stop-color="#FAFF00"/>
</linearGradient>
<linearGradient id="paint2_linear_3459_10425" x1="-8.0219" y1="11.787" x2="-5.00077" y2="41.0609" gradientUnits="userSpaceOnUse">
<stop stop-color="#001D8C"/>
<stop offset="0.442967" stop-color="#00B1FF"/>
<stop offset="0.828961" stop-color="#0FB900"/>
</linearGradient>
</defs>
</svg>
